<svg width="25" height="24" viewBox="0 0 25 24" fill="none" xmlns="http://www.w3.org/2000/svg">
<g id="icon / 24px / arrow rifht">
<path id="Vector" d="M20.2331 15.7621L20.2329 15.7595L19.4853 6.04096C19.4693 5.83296 19.3675 5.64582 19.2313 5.50956C19.095 5.3733 18.9079 5.27152 18.6999 5.25552L8.98514 4.50823C8.70425 4.47866 8.46336 4.60339 8.31545 4.7513C8.15507 4.91168 8.0991 5.10053 8.07386 5.27719L8.07253 5.28652L8.0719 5.29592C8.04159 5.7506 8.39821 6.17125 8.85878 6.20269C8.85921 6.20272 8.85964 6.20275 8.86007 6.20278L16.7308 6.80208L6.24358 17.2893C5.91099 17.6219 5.91099 18.1647 6.24358 18.4972C6.57616 18.8298 7.11893 18.8298 7.45151 18.4972L17.9387 8.01002L18.538 15.8808C18.5381 15.8812 18.5381 15.8816 18.5381 15.882C18.5696 16.3426 18.9902 16.6992 19.4449 16.6689C19.9061 16.6382 20.2634 16.2172 20.2331 15.7621Z" fill="#1A1A1A" stroke="#1A1A1A" stroke-width="0.5"/>
</g>
</svg>
