<svg width="24" height="24" viewBox="0 0 24 24" fill="none" xmlns="http://www.w3.org/2000/svg">
<g id="icon / 24px / arrow rifht">
<path id="Vector" d="M19.5651 15.7621L19.5649 15.7595L18.8173 6.04096C18.8013 5.83296 18.6996 5.64582 18.5633 5.50956C18.427 5.3733 18.2399 5.27152 18.0319 5.25552L8.31717 4.50823C8.03628 4.47866 7.79539 4.60339 7.64748 4.7513C7.4871 4.91168 7.43113 5.10053 7.40589 5.27719L7.40456 5.28652L7.40393 5.29592C7.37362 5.7506 7.73024 6.17125 8.19081 6.20269C8.19124 6.20272 8.19167 6.20275 8.1921 6.20278L16.0628 6.80208L5.57561 17.2893C5.24303 17.6219 5.24303 18.1647 5.57561 18.4972C5.9082 18.8298 6.45096 18.8298 6.78354 18.4972L17.2708 8.01002L17.8701 15.8808C17.8701 15.8812 17.8701 15.8816 17.8702 15.882C17.9016 16.3426 18.3223 16.6992 18.7769 16.6689C19.2381 16.6382 19.5954 16.2172 19.5651 15.7621Z" fill="white" stroke="white" stroke-width="0.5"/>
</g>
</svg>
