<svg width="40" height="40" viewBox="0 0 40 40" fill="none" xmlns="http://www.w3.org/2000/svg">
<g id="vector">
<g id="Vector">
<mask id="path-1-inside-1_275_116" fill="white">
<path d="M0.597015 16.7164H7.76119V28.1136C6.87558 28.2633 6.07853 28.7403 5.52797 29.4499C4.97742 30.1596 4.71356 31.0501 4.78867 31.9452C4.86378 32.8402 5.27238 33.6744 5.93351 34.2823C6.59464 34.8903 7.46004 35.2277 8.35821 35.2277C9.25638 35.2277 10.1218 34.8903 10.7829 34.2823C11.444 33.6744 11.8526 32.8402 11.9278 31.9452C12.0029 31.0501 11.739 30.1596 11.1884 29.4499C10.6379 28.7403 9.84083 28.2633 8.95522 28.1136V16.7164H16.1194C16.2777 16.7164 16.4296 16.6535 16.5416 16.5416C16.6535 16.4296 16.7164 16.2777 16.7164 16.1194V10.7463C16.7164 10.5879 16.6535 10.4361 16.5416 10.3241C16.4296 10.2122 16.2777 10.1493 16.1194 10.1493C15.9611 10.1493 15.8092 10.2122 15.6972 10.3241C15.5853 10.4361 15.5224 10.5879 15.5224 10.7463V15.5224H1.19403V1.19403H15.5224V5.97015C15.5224 6.12849 15.5853 6.28034 15.6972 6.3923C15.8092 6.50426 15.9611 6.56716 16.1194 6.56716C16.2777 6.56716 16.4296 6.50426 16.5416 6.3923C16.6535 6.28034 16.7164 6.12849 16.7164 5.97015V0.597015C16.7164 0.438677 16.6535 0.286823 16.5416 0.174861C16.4296 0.0628991 16.2777 0 16.1194 0H0.597015C0.438677 0 0.286823 0.0628991 0.174861 0.174861C0.0628991 0.286823 0 0.438677 0 0.597015V16.1194C0 16.2777 0.0628991 16.4296 0.174861 16.5416C0.286823 16.6535 0.438677 16.7164 0.597015 16.7164ZM10.7463 31.6418C10.7463 32.1141 10.6062 32.5758 10.3438 32.9685C10.0814 33.3612 9.70844 33.6673 9.27208 33.8481C8.83572 34.0288 8.35556 34.0761 7.89232 33.984C7.42908 33.8918 7.00357 33.6644 6.6696 33.3304C6.33562 32.9964 6.10818 32.5709 6.01603 32.1077C5.92389 31.6444 5.97118 31.1643 6.15193 30.7279C6.33268 30.2916 6.63876 29.9186 7.03147 29.6562C7.42419 29.3938 7.8859 29.2537 8.35821 29.2537C8.99134 29.2545 9.59833 29.5063 10.046 29.954C10.4937 30.4017 10.7455 31.0087 10.7463 31.6418ZM39.403 0H23.8806C23.7223 0 23.5704 0.0628991 23.4584 0.174861C23.3465 0.286823 23.2836 0.438677 23.2836 0.597015V7.76119H11.8864C11.7367 6.87558 11.2597 6.07853 10.5501 5.52797C9.84044 4.97742 8.94985 4.71356 8.05482 4.78867C7.1598 4.86378 6.32565 5.27238 5.71768 5.93351C5.10971 6.59464 4.77229 7.46004 4.77229 8.35821C4.77229 9.25638 5.10971 10.1218 5.71768 10.7829C6.32565 11.444 7.1598 11.8526 8.05482 11.9278C8.94985 12.0029 9.84044 11.739 10.5501 11.1884C11.2597 10.6379 11.7367 9.84083 11.8864 8.95522H23.2836V16.1194C23.2836 16.2777 23.3465 16.4296 23.4584 16.5416C23.5704 16.6535 23.7223 16.7164 23.8806 16.7164H29.2537C29.4121 16.7164 29.5639 16.6535 29.6759 16.5416C29.7878 16.4296 29.8507 16.2777 29.8507 16.1194C29.8507 15.9611 29.7878 15.8092 29.6759 15.6972C29.5639 15.5853 29.4121 15.5224 29.2537 15.5224H24.4776V1.19403H38.806V15.5224H34.0299C33.8715 15.5224 33.7197 15.5853 33.6077 15.6972C33.4957 15.8092 33.4328 15.9611 33.4328 16.1194C33.4328 16.2777 33.4957 16.4296 33.6077 16.5416C33.7197 16.6535 33.8715 16.7164 34.0299 16.7164H39.403C39.5613 16.7164 39.7132 16.6535 39.8251 16.5416C39.9371 16.4296 40 16.2777 40 16.1194V0.597015C40 0.438677 39.9371 0.286823 39.8251 0.174861C39.7132 0.0628991 39.5613 0 39.403 0ZM8.35821 10.7463C7.8859 10.7463 7.42419 10.6062 7.03147 10.3438C6.63876 10.0814 6.33268 9.70844 6.15193 9.27208C5.97118 8.83572 5.92389 8.35556 6.01603 7.89232C6.10818 7.42908 6.33562 7.00357 6.6696 6.6696C7.00357 6.33562 7.42908 6.10818 7.89232 6.01603C8.35556 5.92389 8.83572 5.97118 9.27208 6.15193C9.70844 6.33268 10.0814 6.63876 10.3438 7.03147C10.6062 7.42419 10.7463 7.8859 10.7463 8.35821C10.7455 8.99134 10.4937 9.59833 10.046 10.046C9.59833 10.4937 8.99134 10.7455 8.35821 10.7463ZM39.403 23.2836H32.2388V11.8864C33.1244 11.7367 33.9215 11.2597 34.472 10.5501C35.0226 9.84044 35.2864 8.94985 35.2113 8.05482C35.1362 7.1598 34.7276 6.32565 34.0665 5.71768C33.4054 5.10971 32.54 4.77229 31.6418 4.77229C30.7436 4.77229 29.8782 5.10971 29.2171 5.71768C28.556 6.32565 28.1474 7.1598 28.0722 8.05482C27.9971 8.94985 28.261 9.84044 28.8116 10.5501C29.3621 11.2597 30.1592 11.7367 31.0448 11.8864V23.2836H23.8806C23.7223 23.2836 23.5704 23.3465 23.4584 23.4584C23.3465 23.5704 23.2836 23.7223 23.2836 23.8806V29.2537C23.2836 29.4121 23.3465 29.5639 23.4584 29.6759C23.5704 29.7878 23.7223 29.8507 23.8806 29.8507C24.0389 29.8507 24.1908 29.7878 24.3027 29.6759C24.4147 29.5639 24.4776 29.4121 24.4776 29.2537V24.4776H38.806V38.806H24.4776V34.0299C24.4776 33.8715 24.4147 33.7197 24.3027 33.6077C24.1908 33.4957 24.0389 33.4328 23.8806 33.4328C23.7223 33.4328 23.5704 33.4957 23.4584 33.6077C23.3465 33.7197 23.2836 33.8715 23.2836 34.0299V39.403C23.2836 39.5613 23.3465 39.7132 23.4584 39.8251C23.5704 39.9371 23.7223 40 23.8806 40H39.403C39.5613 40 39.7132 39.9371 39.8251 39.8251C39.9371 39.7132 40 39.5613 40 39.403V23.8806C40 23.7223 39.9371 23.5704 39.8251 23.4584C39.7132 23.3465 39.5613 23.2836 39.403 23.2836ZM29.2537 8.35821C29.2537 7.8859 29.3938 7.42419 29.6562 7.03147C29.9186 6.63876 30.2916 6.33268 30.7279 6.15193C31.1643 5.97118 31.6444 5.92389 32.1077 6.01603C32.5709 6.10818 32.9964 6.33562 33.3304 6.6696C33.6644 7.00357 33.8918 7.42908 33.984 7.89232C34.0761 8.35556 34.0288 8.83572 33.8481 9.27208C33.6673 9.70844 33.3612 10.0814 32.9685 10.3438C32.5758 10.6062 32.1141 10.7463 31.6418 10.7463C31.0087 10.7455 30.4017 10.4937 29.954 10.046C29.5063 9.59833 29.2545 8.99134 29.2537 8.35821ZM28.1136 32.2388C28.2633 33.1244 28.7403 33.9215 29.4499 34.472C30.1596 35.0226 31.0501 35.2864 31.9452 35.2113C32.8402 35.1362 33.6744 34.7276 34.2823 34.0665C34.8903 33.4054 35.2277 32.54 35.2277 31.6418C35.2277 30.7436 34.8903 29.8782 34.2823 29.2171C33.6744 28.556 32.8402 28.1474 31.9452 28.0722C31.0501 27.9971 30.1596 28.261 29.4499 28.8116C28.7403 29.3621 28.2633 30.1592 28.1136 31.0448H16.7164V23.8806C16.7164 23.7223 16.6535 23.5704 16.5416 23.4584C16.4296 23.3465 16.2777 23.2836 16.1194 23.2836H10.7463C10.5879 23.2836 10.4361 23.3465 10.3241 23.4584C10.2122 23.5704 10.1493 23.7223 10.1493 23.8806C10.1493 24.0389 10.2122 24.1908 10.3241 24.3027C10.4361 24.4147 10.5879 24.4776 10.7463 24.4776H15.5224V38.806H1.19403V24.4776H5.97015C6.12849 24.4776 6.28034 24.4147 6.3923 24.3027C6.50426 24.1908 6.56716 24.0389 6.56716 23.8806C6.56716 23.7223 6.50426 23.5704 6.3923 23.4584C6.28034 23.3465 6.12849 23.2836 5.97015 23.2836H0.597015C0.438677 23.2836 0.286823 23.3465 0.174861 23.4584C0.0628991 23.5704 0 23.7223 0 23.8806V39.403C0 39.5613 0.0628991 39.7132 0.174861 39.8251C0.286823 39.9371 0.438677 40 0.597015 40H16.1194C16.2777 40 16.4296 39.9371 16.5416 39.8251C16.6535 39.7132 16.7164 39.5613 16.7164 39.403V32.2388H28.1136ZM31.6418 29.2537C32.1141 29.2537 32.5758 29.3938 32.9685 29.6562C33.3612 29.9186 33.6673 30.2916 33.8481 30.7279C34.0288 31.1643 34.0761 31.6444 33.984 32.1077C33.8918 32.5709 33.6644 32.9964 33.3304 33.3304C32.9964 33.6644 32.5709 33.8918 32.1077 33.984C31.6444 34.0761 31.1643 34.0288 30.7279 33.8481C30.2916 33.6673 29.9186 33.3612 29.6562 32.9685C29.3938 32.5758 29.2537 32.1141 29.2537 31.6418C29.2545 31.0087 29.5063 30.4017 29.954 29.954C30.4017 29.5063 31.0087 29.2545 31.6418 29.2537Z"/>
</mask>
<path d="M0.597015 16.7164H7.76119V28.1136C6.87558 28.2633 6.07853 28.7403 5.52797 29.4499C4.97742 30.1596 4.71356 31.0501 4.78867 31.9452C4.86378 32.8402 5.27238 33.6744 5.93351 34.2823C6.59464 34.8903 7.46004 35.2277 8.35821 35.2277C9.25638 35.2277 10.1218 34.8903 10.7829 34.2823C11.444 33.6744 11.8526 32.8402 11.9278 31.9452C12.0029 31.0501 11.739 30.1596 11.1884 29.4499C10.6379 28.7403 9.84083 28.2633 8.95522 28.1136V16.7164H16.1194C16.2777 16.7164 16.4296 16.6535 16.5416 16.5416C16.6535 16.4296 16.7164 16.2777 16.7164 16.1194V10.7463C16.7164 10.5879 16.6535 10.4361 16.5416 10.3241C16.4296 10.2122 16.2777 10.1493 16.1194 10.1493C15.9611 10.1493 15.8092 10.2122 15.6972 10.3241C15.5853 10.4361 15.5224 10.5879 15.5224 10.7463V15.5224H1.19403V1.19403H15.5224V5.97015C15.5224 6.12849 15.5853 6.28034 15.6972 6.3923C15.8092 6.50426 15.9611 6.56716 16.1194 6.56716C16.2777 6.56716 16.4296 6.50426 16.5416 6.3923C16.6535 6.28034 16.7164 6.12849 16.7164 5.97015V0.597015C16.7164 0.438677 16.6535 0.286823 16.5416 0.174861C16.4296 0.0628991 16.2777 0 16.1194 0H0.597015C0.438677 0 0.286823 0.0628991 0.174861 0.174861C0.0628991 0.286823 0 0.438677 0 0.597015V16.1194C0 16.2777 0.0628991 16.4296 0.174861 16.5416C0.286823 16.6535 0.438677 16.7164 0.597015 16.7164ZM10.7463 31.6418C10.7463 32.1141 10.6062 32.5758 10.3438 32.9685C10.0814 33.3612 9.70844 33.6673 9.27208 33.8481C8.83572 34.0288 8.35556 34.0761 7.89232 33.984C7.42908 33.8918 7.00357 33.6644 6.6696 33.3304C6.33562 32.9964 6.10818 32.5709 6.01603 32.1077C5.92389 31.6444 5.97118 31.1643 6.15193 30.7279C6.33268 30.2916 6.63876 29.9186 7.03147 29.6562C7.42419 29.3938 7.8859 29.2537 8.35821 29.2537C8.99134 29.2545 9.59833 29.5063 10.046 29.954C10.4937 30.4017 10.7455 31.0087 10.7463 31.6418ZM39.403 0H23.8806C23.7223 0 23.5704 0.0628991 23.4584 0.174861C23.3465 0.286823 23.2836 0.438677 23.2836 0.597015V7.76119H11.8864C11.7367 6.87558 11.2597 6.07853 10.5501 5.52797C9.84044 4.97742 8.94985 4.71356 8.05482 4.78867C7.1598 4.86378 6.32565 5.27238 5.71768 5.93351C5.10971 6.59464 4.77229 7.46004 4.77229 8.35821C4.77229 9.25638 5.10971 10.1218 5.71768 10.7829C6.32565 11.444 7.1598 11.8526 8.05482 11.9278C8.94985 12.0029 9.84044 11.739 10.5501 11.1884C11.2597 10.6379 11.7367 9.84083 11.8864 8.95522H23.2836V16.1194C23.2836 16.2777 23.3465 16.4296 23.4584 16.5416C23.5704 16.6535 23.7223 16.7164 23.8806 16.7164H29.2537C29.4121 16.7164 29.5639 16.6535 29.6759 16.5416C29.7878 16.4296 29.8507 16.2777 29.8507 16.1194C29.8507 15.9611 29.7878 15.8092 29.6759 15.6972C29.5639 15.5853 29.4121 15.5224 29.2537 15.5224H24.4776V1.19403H38.806V15.5224H34.0299C33.8715 15.5224 33.7197 15.5853 33.6077 15.6972C33.4957 15.8092 33.4328 15.9611 33.4328 16.1194C33.4328 16.2777 33.4957 16.4296 33.6077 16.5416C33.7197 16.6535 33.8715 16.7164 34.0299 16.7164H39.403C39.5613 16.7164 39.7132 16.6535 39.8251 16.5416C39.9371 16.4296 40 16.2777 40 16.1194V0.597015C40 0.438677 39.9371 0.286823 39.8251 0.174861C39.7132 0.0628991 39.5613 0 39.403 0ZM8.35821 10.7463C7.8859 10.7463 7.42419 10.6062 7.03147 10.3438C6.63876 10.0814 6.33268 9.70844 6.15193 9.27208C5.97118 8.83572 5.92389 8.35556 6.01603 7.89232C6.10818 7.42908 6.33562 7.00357 6.6696 6.6696C7.00357 6.33562 7.42908 6.10818 7.89232 6.01603C8.35556 5.92389 8.83572 5.97118 9.27208 6.15193C9.70844 6.33268 10.0814 6.63876 10.3438 7.03147C10.6062 7.42419 10.7463 7.8859 10.7463 8.35821C10.7455 8.99134 10.4937 9.59833 10.046 10.046C9.59833 10.4937 8.99134 10.7455 8.35821 10.7463ZM39.403 23.2836H32.2388V11.8864C33.1244 11.7367 33.9215 11.2597 34.472 10.5501C35.0226 9.84044 35.2864 8.94985 35.2113 8.05482C35.1362 7.1598 34.7276 6.32565 34.0665 5.71768C33.4054 5.10971 32.54 4.77229 31.6418 4.77229C30.7436 4.77229 29.8782 5.10971 29.2171 5.71768C28.556 6.32565 28.1474 7.1598 28.0722 8.05482C27.9971 8.94985 28.261 9.84044 28.8116 10.5501C29.3621 11.2597 30.1592 11.7367 31.0448 11.8864V23.2836H23.8806C23.7223 23.2836 23.5704 23.3465 23.4584 23.4584C23.3465 23.5704 23.2836 23.7223 23.2836 23.8806V29.2537C23.2836 29.4121 23.3465 29.5639 23.4584 29.6759C23.5704 29.7878 23.7223 29.8507 23.8806 29.8507C24.0389 29.8507 24.1908 29.7878 24.3027 29.6759C24.4147 29.5639 24.4776 29.4121 24.4776 29.2537V24.4776H38.806V38.806H24.4776V34.0299C24.4776 33.8715 24.4147 33.7197 24.3027 33.6077C24.1908 33.4957 24.0389 33.4328 23.8806 33.4328C23.7223 33.4328 23.5704 33.4957 23.4584 33.6077C23.3465 33.7197 23.2836 33.8715 23.2836 34.0299V39.403C23.2836 39.5613 23.3465 39.7132 23.4584 39.8251C23.5704 39.9371 23.7223 40 23.8806 40H39.403C39.5613 40 39.7132 39.9371 39.8251 39.8251C39.9371 39.7132 40 39.5613 40 39.403V23.8806C40 23.7223 39.9371 23.5704 39.8251 23.4584C39.7132 23.3465 39.5613 23.2836 39.403 23.2836ZM29.2537 8.35821C29.2537 7.8859 29.3938 7.42419 29.6562 7.03147C29.9186 6.63876 30.2916 6.33268 30.7279 6.15193C31.1643 5.97118 31.6444 5.92389 32.1077 6.01603C32.5709 6.10818 32.9964 6.33562 33.3304 6.6696C33.6644 7.00357 33.8918 7.42908 33.984 7.89232C34.0761 8.35556 34.0288 8.83572 33.8481 9.27208C33.6673 9.70844 33.3612 10.0814 32.9685 10.3438C32.5758 10.6062 32.1141 10.7463 31.6418 10.7463C31.0087 10.7455 30.4017 10.4937 29.954 10.046C29.5063 9.59833 29.2545 8.99134 29.2537 8.35821ZM28.1136 32.2388C28.2633 33.1244 28.7403 33.9215 29.4499 34.472C30.1596 35.0226 31.0501 35.2864 31.9452 35.2113C32.8402 35.1362 33.6744 34.7276 34.2823 34.0665C34.8903 33.4054 35.2277 32.54 35.2277 31.6418C35.2277 30.7436 34.8903 29.8782 34.2823 29.2171C33.6744 28.556 32.8402 28.1474 31.9452 28.0722C31.0501 27.9971 30.1596 28.261 29.4499 28.8116C28.7403 29.3621 28.2633 30.1592 28.1136 31.0448H16.7164V23.8806C16.7164 23.7223 16.6535 23.5704 16.5416 23.4584C16.4296 23.3465 16.2777 23.2836 16.1194 23.2836H10.7463C10.5879 23.2836 10.4361 23.3465 10.3241 23.4584C10.2122 23.5704 10.1493 23.7223 10.1493 23.8806C10.1493 24.0389 10.2122 24.1908 10.3241 24.3027C10.4361 24.4147 10.5879 24.4776 10.7463 24.4776H15.5224V38.806H1.19403V24.4776H5.97015C6.12849 24.4776 6.28034 24.4147 6.3923 24.3027C6.50426 24.1908 6.56716 24.0389 6.56716 23.8806C6.56716 23.7223 6.50426 23.5704 6.3923 23.4584C6.28034 23.3465 6.12849 23.2836 5.97015 23.2836H0.597015C0.438677 23.2836 0.286823 23.3465 0.174861 23.4584C0.0628991 23.5704 0 23.7223 0 23.8806V39.403C0 39.5613 0.0628991 39.7132 0.174861 39.8251C0.286823 39.9371 0.438677 40 0.597015 40H16.1194C16.2777 40 16.4296 39.9371 16.5416 39.8251C16.6535 39.7132 16.7164 39.5613 16.7164 39.403V32.2388H28.1136ZM31.6418 29.2537C32.1141 29.2537 32.5758 29.3938 32.9685 29.6562C33.3612 29.9186 33.6673 30.2916 33.8481 30.7279C34.0288 31.1643 34.0761 31.6444 33.984 32.1077C33.8918 32.5709 33.6644 32.9964 33.3304 33.3304C32.9964 33.6644 32.5709 33.8918 32.1077 33.984C31.6444 34.0761 31.1643 34.0288 30.7279 33.8481C30.2916 33.6673 29.9186 33.3612 29.6562 32.9685C29.3938 32.5758 29.2537 32.1141 29.2537 31.6418C29.2545 31.0087 29.5063 30.4017 29.954 29.954C30.4017 29.5063 31.0087 29.2545 31.6418 29.2537Z" fill="white" stroke="white" stroke-width="2" mask="url(#path-1-inside-1_275_116)"/>
</g>
</g>
</svg>
