<svg width="40" height="40" viewBox="0 0 40 40" fill="none" xmlns="http://www.w3.org/2000/svg">
<g id="vector">
<path id="Vector" d="M11.6667 1.16667H11.1667V1.66667V28.3333V28.8333H11.6667H38.3333H38.8333V28.3333V1.66667V1.16667H38.3333H11.6667ZM33.8011 4.5H25.4862V3.83333H36.15V14.4836H35.4837V6.17421V4.96689L34.6301 5.82071L19.3616 21.0931L18.8904 20.6218L34.1547 5.35351L35.008 4.5H33.8011ZM28.3333 38.8333H28.8333V38.3333V37.1667H29.5V39.5H27.1667V38.8333H28.3333ZM1.66667 38.8333H2.83333V39.5H0.5V37.1667H1.16667V38.3333V38.8333H1.66667ZM1.66667 11.1667H1.16667V11.6667V12.8333H0.5V10.5H2.83333V11.1667H1.66667ZM10.5 0.5H39.5V29.5H10.5V0.5ZM22.1667 38.8333H24.5V39.5H22.1667V38.8333ZM17.1667 38.8333H19.5V39.5H17.1667V38.8333ZM12.1667 38.8333H14.5V39.5H12.1667V38.8333ZM5.5 38.8333H9.5V39.5H5.5V38.8333ZM0.5 30.5H1.16667V34.5H0.5V30.5ZM0.5 25.5H1.16667V27.8333H0.5V25.5ZM0.5 20.5H1.16667V22.8333H0.5V20.5ZM0.5 15.5H1.16667V17.8333H0.5V15.5ZM5.5 10.5H7.83333V11.1667H5.5V10.5ZM28.8333 32.1667H29.5V34.5H28.8333V32.1667Z" fill="white" stroke="white"/>
</g>
</svg>
