<svg width="40" height="40" viewBox="0 0 40 40" fill="none" xmlns="http://www.w3.org/2000/svg">
<g id="vector">
<path id="Vector" fill-rule="evenodd" clip-rule="evenodd" d="M10 0H40V30H10V0ZM11.6667 1.66667H38.3333V28.3333H11.6667V1.66667ZM18.1833 20.6218L33.8011 5H24.9862V3.33333H36.65V14.9836H34.9837V6.17421L19.3616 21.8003L18.1833 20.6218ZM30 36.6667H28.3333V38.3333H26.6667V40H30V36.6667ZM0 36.6667H1.66667V38.3333H3.33333V40H0V36.6667ZM21.6667 38.3333H25V40H21.6667V38.3333ZM16.6667 38.3333H20V40H16.6667V38.3333ZM11.6667 38.3333H15V40H11.6667V38.3333ZM5 38.3333H10V40H5V38.3333ZM0 30H1.66667V35H0V30ZM0 25H1.66667V28.3333H0V25ZM0 20H1.66667V23.3333H0V20ZM0 15H1.66667V18.3333H0V15ZM5 10H8.33333V11.6667H5V10ZM28.3333 31.6667H30V35H28.3333V31.6667ZM0 13.3333H1.66667V11.6667H3.33333V10H0V13.3333Z" fill="#1A1A1A"/>
</g>
</svg>