<svg width="41" height="40" viewBox="0 0 41 40" fill="none" xmlns="http://www.w3.org/2000/svg">
<g id="vector">
<path id="Vector" d="M37.9945 11.6104C37.997 10.9771 37.805 10.3583 37.4445 9.83764C37.084 9.31698 36.5723 8.91958 35.9786 8.69915C35.3849 8.47872 34.7378 8.4459 34.1248 8.60512C33.5119 8.76434 32.9626 9.10793 32.5512 9.58943L23.095 4.12299C23.2126 3.79785 23.2753 3.45536 23.2803 3.10962C23.2803 2.2849 22.9526 1.49395 22.3695 0.910786C21.7863 0.327619 20.9954 0 20.1706 0C19.3459 0 18.555 0.327619 17.9718 0.910786C17.3886 1.49395 17.061 2.2849 17.061 3.10962C17.0753 3.45701 17.1477 3.79955 17.2753 4.12299L7.79009 9.58943C7.37872 9.10793 6.82943 8.76434 6.21647 8.60512C5.60351 8.4459 4.95644 8.47872 4.36274 8.69915C3.76904 8.91958 3.25733 9.31698 2.89679 9.83764C2.53626 10.3583 2.34428 10.9771 2.34681 11.6104C2.34848 12.3329 2.60123 13.0324 3.06181 13.5891C3.52238 14.1458 4.16214 14.5251 4.87156 14.6621V25.2939C4.1095 25.4353 3.42792 25.8567 2.96085 26.4752C2.49379 27.0937 2.27504 27.8646 2.34763 28.6363C2.42023 29.408 2.77891 30.1246 3.35313 30.6451C3.92736 31.1657 4.67557 31.4526 5.45064 31.4494C5.89181 31.4456 6.327 31.347 6.72667 31.1602C7.12634 30.9733 7.48112 30.7026 7.76692 30.3665L17.2753 35.833C17.1055 36.3026 17.0513 36.8062 17.1172 37.3011C17.1832 37.7961 17.3674 38.2679 17.6542 38.6767C17.9411 39.0854 18.3221 39.4191 18.7652 39.6494C19.2082 39.8797 19.7002 40 20.1996 40C20.699 40 21.191 39.8797 21.634 39.6494C22.0771 39.4191 22.4581 39.0854 22.745 38.6767C23.0318 38.2679 23.216 37.7961 23.282 37.3011C23.3479 36.8062 23.2937 36.3026 23.1239 35.833L32.5802 30.3665C32.9915 30.848 33.5408 31.1916 34.1538 31.3509C34.7667 31.5101 35.4138 31.4773 36.0075 31.2568C36.6012 31.0364 37.1129 30.639 37.4735 30.1183C37.834 29.5977 38.026 28.9789 38.0234 28.3456C38.0218 27.6231 37.769 26.9236 37.3084 26.3669C36.8479 25.8102 36.2081 25.4309 35.4987 25.2939V14.6621C36.2028 14.5192 36.8358 14.1374 37.2907 13.5812C37.7455 13.0251 37.9941 12.3288 37.9945 11.6104ZM32.5338 26.3478L27.3222 23.3945V16.5673L32.5338 13.614C32.991 14.1541 33.6176 14.5235 34.3116 14.6621V25.2939C33.6168 25.434 32.9901 25.8055 32.5338 26.3478ZM13.0017 23.3945L7.79009 26.3478C7.33289 25.8076 6.70629 25.4382 6.01234 25.2997V14.6621C6.71335 14.5257 7.3467 14.1538 7.80746 13.6082L13.0191 16.5615L13.0017 23.3945ZM14.1599 17.2274L19.5916 20.3138V26.5273L14.1599 23.3887V17.2274ZM20.1706 13.0928L25.5966 16.2256L20.1706 19.3121L14.7447 16.2256L20.1706 13.0928ZM20.7497 20.3138L26.1814 17.2216V23.3887L20.7497 26.5273V20.3138ZM34.8907 9.66471C35.2769 9.66471 35.6544 9.77931 35.9754 9.994C36.2965 10.2087 36.5466 10.5138 36.6941 10.8707C36.8417 11.2277 36.88 11.6203 36.8042 11.999C36.7284 12.3777 36.542 12.7254 36.2685 12.9981C35.995 13.2708 35.6467 13.4562 35.2678 13.5309C34.8889 13.6055 34.4963 13.566 34.1398 13.4174C33.7834 13.2689 33.479 13.0178 33.2652 12.6961C33.0515 12.3745 32.938 11.9966 32.9392 11.6104C32.9407 11.0938 33.147 10.599 33.5128 10.2342C33.8786 9.86952 34.3741 9.66471 34.8907 9.66471ZM31.9953 10.5912C31.873 10.9173 31.8084 11.2622 31.8042 11.6104C31.8097 11.9499 31.8703 12.2863 31.9837 12.6064L26.7721 15.5655L20.7497 12.091V6.15554C21.4282 6.01696 22.0402 5.65385 22.4869 5.12479L31.9953 10.5912ZM20.1706 1.15814C20.5566 1.15814 20.9339 1.2726 21.2548 1.48703C21.5757 1.70146 21.8259 2.00624 21.9736 2.36282C22.1213 2.71941 22.1599 3.11178 22.0846 3.49033C22.0093 3.86888 21.8235 4.2166 21.5505 4.48952C21.2776 4.76243 20.9299 4.94829 20.5514 5.02359C20.1728 5.09889 19.7804 5.06025 19.4239 4.91254C19.0673 4.76484 18.7625 4.51472 18.5481 4.1938C18.3336 3.87288 18.2192 3.49558 18.2192 3.10962C18.2192 2.59205 18.4248 2.09569 18.7907 1.72972C19.1567 1.36375 19.6531 1.15814 20.1706 1.15814ZM17.8544 5.12479C18.3011 5.65385 18.9131 6.01696 19.5916 6.15554V12.091L13.5808 15.5655L8.36916 12.6064C8.61046 11.9563 8.61046 11.2413 8.36916 10.5912L17.8544 5.12479ZM3.50495 11.6104C3.50496 11.2242 3.61955 10.8467 3.83424 10.5256C4.04893 10.2046 4.35405 9.95445 4.71097 9.80692C5.0679 9.65939 5.46057 9.62109 5.83927 9.69685C6.21798 9.77262 6.56569 9.95906 6.83837 10.2326C7.11106 10.5061 7.29646 10.8543 7.37111 11.2332C7.44575 11.6122 7.40628 12.0047 7.25768 12.3612C7.10909 12.7177 6.85807 13.0221 6.53639 13.2358C6.21471 13.4495 5.83684 13.563 5.45064 13.5619C4.93408 13.5603 4.4392 13.3541 4.07448 12.9883C3.70976 12.6224 3.50495 12.127 3.50495 11.6104ZM5.45064 30.2913C5.06571 30.2855 4.69107 30.1661 4.37386 29.948C4.05666 29.7299 3.81105 29.4228 3.66795 29.0654C3.52485 28.708 3.49066 28.3163 3.56966 27.9395C3.64867 27.5627 3.83735 27.2177 4.11196 26.9479C4.38657 26.6782 4.73485 26.4956 5.11296 26.4233C5.49108 26.351 5.88214 26.3921 6.23693 26.5415C6.59173 26.6909 6.89441 26.9419 7.10689 27.2629C7.31938 27.5839 7.43216 27.9606 7.43106 28.3456C7.43032 28.6038 7.37834 28.8593 7.27812 29.0973C7.1779 29.3353 7.03144 29.5511 6.84723 29.7321C6.66302 29.913 6.44472 30.0557 6.20498 30.1516C5.96525 30.2476 5.70885 30.2951 5.45064 30.2913ZM8.37495 29.3647C8.61625 28.7147 8.61625 27.9996 8.37495 27.3496L13.5866 24.3905L19.6032 27.8649V33.8004C18.9247 33.939 18.3127 34.3021 17.8659 34.8312L8.37495 29.3647ZM20.1706 38.7978C19.7847 38.7978 19.4074 38.6834 19.0865 38.4689C18.7655 38.2545 18.5154 37.9497 18.3677 37.5932C18.22 37.2366 18.1814 36.8442 18.2567 36.4656C18.332 36.0871 18.5178 35.7394 18.7907 35.4665C19.0637 35.1935 19.4114 35.0077 19.7899 34.9324C20.1685 34.8571 20.5609 34.8957 20.9174 35.0434C21.274 35.1911 21.5788 35.4413 21.7932 35.7622C22.0077 36.0831 22.1221 36.4604 22.1221 36.8464C22.1221 37.3639 21.9165 37.8603 21.5505 38.2263C21.1846 38.5922 20.6882 38.7978 20.1706 38.7978ZM22.4869 34.8312C22.0402 34.3021 21.4282 33.939 20.7497 33.8004V27.8649L26.7663 24.3905L31.9779 27.3496C31.8645 27.6697 31.8039 28.006 31.7984 28.3456C31.8026 28.6938 31.8672 29.0387 31.9895 29.3647L22.4869 34.8312ZM36.8132 28.3456C36.8132 28.7318 36.6986 29.1093 36.4839 29.4304C36.2692 29.7514 35.9641 30.0015 35.6072 30.149C35.2502 30.2966 34.8576 30.3349 34.4789 30.2591C34.1002 30.1834 33.7524 29.9969 33.4798 29.7234C33.2071 29.4499 33.0217 29.1017 32.947 28.7227C32.8724 28.3438 32.9119 27.9512 33.0604 27.5948C33.209 27.2383 33.4601 26.9339 33.7817 26.7202C34.1034 26.5064 34.4813 26.393 34.8675 26.3941C35.1252 26.3918 35.3809 26.4406 35.6196 26.5376C35.8584 26.6347 36.0756 26.7781 36.2586 26.9595C36.4417 27.1409 36.587 27.3568 36.6861 27.5947C36.7853 27.8326 36.8363 28.0878 36.8363 28.3456H36.8132Z" fill="#1A1A1A"/>
</g>
</svg>