<svg width="40" height="40" viewBox="0 0 40 40" fill="none" xmlns="http://www.w3.org/2000/svg">
<g id="vector">
<g id="Group">
<path id="Vector" d="M19.7754 11.2793C17.8977 11.2793 16.3633 9.74487 16.3633 7.86717C16.3633 5.98946 17.8977 4.45508 19.7754 4.45508C21.6531 4.45508 23.1875 5.98946 23.1875 7.86717C23.1875 9.74487 21.6531 11.2793 19.7754 11.2793ZM19.7754 10.521C21.2383 10.521 22.4292 9.33012 22.4292 7.86717C22.4292 6.40421 21.2383 5.21332 19.7754 5.21332C18.3124 5.21332 17.1215 6.40421 17.1215 7.86717C17.1215 9.33012 18.3124 10.521 19.7754 10.521Z" fill="white" stroke="white"/>
<path id="Vector_2" d="M27.3834 23.1747L27.3881 23.1903L27.3937 23.2056C27.6543 23.9129 27.5631 24.654 27.2395 25.1112C26.9408 25.5069 26.5146 25.7469 25.9135 25.7855H25.753C25.253 25.7855 24.6957 26.1335 24.6014 26.7245L22.2743 37.9644L22.2737 37.9677C22.1008 38.8321 21.2957 39.4998 20.3904 39.4998H19.0717C18.1577 39.4998 17.3615 38.8682 17.189 37.9713L17.1891 37.9713L17.1877 37.9644L14.8607 26.7245C14.7663 26.1335 14.2091 25.7855 13.709 25.7855H13.5332C12.9951 25.7855 12.5708 25.5583 12.2663 25.1549C11.9448 24.7005 11.849 23.958 12.115 23.198L12.119 23.1867L12.1223 23.1753L14.6684 14.6154C14.9536 13.8086 15.6865 13.291 16.5222 13.291H23.0277C23.8174 13.291 24.5529 13.8067 24.8386 14.5747L27.3834 23.1747ZM23.9129 26.5188L23.9129 26.5188L23.9136 26.5154C24.0865 25.6511 24.8916 24.9833 25.7969 24.9833H25.9728C26.0862 24.9833 26.2347 24.9718 26.3722 24.9031C26.448 24.8652 26.5335 24.8032 26.599 24.705C26.6251 24.6658 26.645 24.6254 26.6596 24.5848C26.7349 24.435 26.7681 24.263 26.7746 24.1022C26.7817 23.9237 26.7576 23.7254 26.6925 23.5206V23.4878L26.672 23.4184L24.1225 14.803L24.1201 14.7948L24.1174 14.7867C23.9642 14.3271 23.5592 14.0053 23.0277 14.0053H16.5662C16.074 14.0053 15.5977 14.2911 15.4325 14.7867L15.4297 14.7952L15.4272 14.8036L12.8801 23.455C12.7991 23.7013 12.7674 23.9341 12.7753 24.1399C12.7816 24.304 12.8144 24.4776 12.8903 24.6286C12.9049 24.6693 12.9248 24.7098 12.951 24.749C13.0164 24.8472 13.1019 24.9091 13.1777 24.947C13.3152 25.0157 13.4637 25.0273 13.5772 25.0273H13.753C14.667 25.0273 15.4631 25.6589 15.6356 26.5558L15.6356 26.5558L15.637 26.5627L17.964 37.8025C18.0584 38.3936 18.6156 38.7416 19.1156 38.7416H20.4343C21.009 38.7416 21.4448 38.327 21.5787 37.7914L21.5812 37.7815L21.5833 37.7715L23.9129 26.5188Z" fill="white" stroke="white"/>
<path id="Vector_3" d="M33.7363 3.91209C33.7363 5.78979 32.2019 7.32418 30.3242 7.32418C28.4465 7.32418 26.9121 5.78979 26.9121 3.91209C26.9121 2.03438 28.4465 0.5 30.3242 0.5C32.2019 0.5 33.7363 2.03438 33.7363 3.91209ZM32.978 3.91209C32.978 2.44913 31.7872 1.25824 30.3242 1.25824C28.8612 1.25824 27.6704 2.44913 27.6704 3.91209C27.6704 5.37504 28.8612 6.56593 30.3242 6.56593C31.7872 6.56593 32.978 5.37504 32.978 3.91209Z" fill="white" stroke="white"/>
<path id="Vector_4" d="M25.2517 10.6031L25.2585 10.5863L25.264 10.569C25.5025 9.81914 26.2257 9.29102 27.0732 9.29102H33.5787C34.3682 9.29102 35.1035 9.80638 35.3893 10.5741L37.934 19.2612L37.9339 19.2613L37.9371 19.2713C38.1647 19.9921 38.0712 20.7404 37.7466 21.1991C37.4421 21.6024 37.0178 21.8295 36.4798 21.8295H36.304C35.804 21.8295 35.2467 22.1775 35.1523 22.7685L32.8253 34.0083L32.8247 34.0116C32.6518 34.876 31.8467 35.5438 30.9413 35.5438H29.6227C28.7086 35.5438 27.9125 34.9122 27.74 34.0153L27.7401 34.0153L27.739 34.0099L26.7732 29.2688C26.7332 29.036 26.8862 28.8337 27.0747 28.7994L26.9853 28.3075L27.0747 28.7994C27.3093 28.7568 27.5138 28.9106 27.5483 29.1002L27.5482 29.1003L27.5503 29.1106L28.5148 33.8456C28.6088 34.4372 29.1663 34.7855 29.6666 34.7855H30.9853C31.5273 34.7855 32.0052 34.3996 32.093 33.8463L34.42 22.6067L34.42 22.6067L34.4206 22.6034C34.5935 21.739 35.3986 21.0712 36.304 21.0712H36.4798C36.5933 21.0712 36.7418 21.0597 36.8792 20.991C36.955 20.9531 37.0405 20.8911 37.106 20.793C37.1321 20.7537 37.1521 20.7132 37.1667 20.6726C37.2425 20.5215 37.2753 20.348 37.2816 20.1839C37.2895 19.978 37.2579 19.7453 37.1769 19.499L34.6298 10.8476L34.6273 10.8391L34.6245 10.8307C34.4713 10.371 34.0662 10.0493 33.5347 10.0493H27.0732C26.5811 10.0493 26.1047 10.3351 25.9395 10.8307L25.9371 10.8379L25.935 10.8451C25.8865 11.0066 25.6645 11.1176 25.5007 11.0521L25.48 11.0438L25.4586 11.0374C25.2972 10.9889 25.1862 10.7669 25.2517 10.6031Z" fill="white" stroke="white"/>
<path id="Vector_5" d="M9.26951 7.32418C7.39181 7.32418 5.85742 5.78979 5.85742 3.91209C5.85742 2.03438 7.39181 0.5 9.26951 0.5C11.1472 0.5 12.6816 2.03438 12.6816 3.91209C12.6816 5.78979 11.1472 7.32418 9.26951 7.32418ZM9.26951 6.56593C10.7325 6.56593 11.9234 5.37504 11.9234 3.91209C11.9234 2.44913 10.7325 1.25824 9.26951 1.25824C7.80655 1.25824 6.61566 2.44913 6.61566 3.91209C6.61566 5.37504 7.80655 6.56593 9.26951 6.56593Z" fill="white" stroke="white"/>
<path id="Vector_6" d="M5.13072 22.5997L5.13067 22.5997L5.1321 22.6067L7.4591 33.8465C7.5535 34.4375 8.11071 34.7855 8.61073 34.7855H9.92941C10.4297 34.7855 10.9872 34.4372 11.0812 33.8456L12.042 29.1289C12.1144 28.885 12.3106 28.7716 12.501 28.7963C12.6229 28.8346 12.7086 28.9051 12.7551 28.975C12.8018 29.0449 12.8101 29.1116 12.7912 29.1748L12.7847 29.1965L12.7801 29.2187L11.8131 33.9659L11.8127 33.9677C11.6399 34.8321 10.8348 35.4998 9.92941 35.4998H8.61073C7.69672 35.4998 6.90059 34.8682 6.72811 33.9713L6.72816 33.9713L6.72672 33.9644L4.39973 22.7245C4.30533 22.1335 3.74812 21.7855 3.24809 21.7855H3.07227C2.53416 21.7855 2.10985 21.5583 1.80539 21.1549C1.48382 20.7005 1.38807 19.958 1.65409 19.1979L1.65841 19.1856L1.66208 19.1731L4.16385 10.6144C4.44938 9.80811 5.18194 9.29102 6.01733 9.29102H12.5228C13.3171 9.29102 14.0566 9.81272 14.3386 10.5883L14.3413 10.5957L14.3443 10.6031C14.3976 10.7364 14.3314 10.9576 14.0954 11.0521C13.9621 11.1054 13.7408 11.0392 13.6464 10.8031L13.6387 10.7838L13.6294 10.7652C13.4338 10.374 13.0626 10.0493 12.5228 10.0493H6.06128C5.56914 10.0493 5.09282 10.3351 4.9276 10.8307L4.9248 10.8391L4.9223 10.8476L2.3752 19.4989C2.29417 19.7453 2.26252 19.978 2.27044 20.1839C2.27675 20.348 2.30956 20.5216 2.38539 20.6726C2.4 20.7132 2.41993 20.7537 2.44608 20.793C2.51153 20.8911 2.59704 20.9531 2.67284 20.991C2.81029 21.0597 2.95882 21.0712 3.07227 21.0712H3.24809C4.16211 21.0712 4.95824 21.7028 5.13072 22.5997Z" fill="white" stroke="white"/>
</g>
</g>
</svg>
