<svg width="40" height="40" viewBox="0 0 40 40" fill="none" xmlns="http://www.w3.org/2000/svg">
<g id="vector">
<g id="Group">
<path id="Vector" d="M15.8633 7.86717C15.8633 10.021 17.6215 11.7793 19.7754 11.7793C21.9292 11.7793 23.6875 10.021 23.6875 7.86717C23.6875 5.71332 21.9292 3.95508 19.7754 3.95508C17.6215 3.95508 15.8633 5.71332 15.8633 7.86717ZM21.9292 7.86717C21.9292 9.05398 20.9622 10.021 19.7754 10.021C18.5886 10.021 17.6215 9.05398 17.6215 7.86717C17.6215 6.68035 18.5886 5.71332 19.7754 5.71332C20.9622 5.71332 21.9292 6.68035 21.9292 7.86717Z" fill="#1A1A1A"/>
<path id="Vector_2" d="M27.6431 25.4064C28.0827 24.791 28.1706 23.8679 27.8629 23.0328L25.3134 14.4174C24.9618 13.4504 24.0387 12.791 23.0277 12.791H16.5222C15.4673 12.791 14.5442 13.4504 14.1925 14.4613L11.6431 23.0328C11.3354 23.9119 11.4233 24.835 11.8629 25.4504C12.2585 25.9778 12.8299 26.2855 13.5332 26.2855H13.709C14.0167 26.2855 14.3244 26.5053 14.3684 26.813L16.698 38.0657C16.9178 39.2086 17.9288 39.9998 19.0717 39.9998H20.3904C21.5332 39.9998 22.5442 39.1646 22.764 38.0657L25.0936 26.813C25.1376 26.5053 25.4453 26.2855 25.753 26.2855H25.9288C26.6761 26.2416 27.2475 25.9339 27.6431 25.4064ZM26.1925 24.3954C26.1925 24.4394 26.1486 24.4833 25.9728 24.4833H25.7969C24.6541 24.4833 23.6431 25.3185 23.4233 26.4174L21.0936 37.6701C21.0057 38.0218 20.742 38.2416 20.4343 38.2416H19.1156C18.8079 38.2416 18.5002 38.0218 18.4563 37.7141L16.1266 26.4613C15.9068 25.3185 14.8958 24.5273 13.753 24.5273H13.5772C13.4013 24.5273 13.3574 24.4833 13.3574 24.4394C13.2695 24.3075 13.2255 23.9998 13.3574 23.6042L15.9068 14.9449C15.9947 14.6811 16.2585 14.5053 16.5662 14.5053H23.0277C23.3354 14.5053 23.5552 14.6811 23.6431 14.9449L26.1925 23.5602V23.6042C26.3244 23.9559 26.2805 24.2635 26.1925 24.3954Z" fill="#1A1A1A"/>
<path id="Vector_3" d="M30.3242 7.82418C32.478 7.82418 34.2363 6.06593 34.2363 3.91209C34.2363 1.75824 32.478 0 30.3242 0C28.1704 0 26.4121 1.75824 26.4121 3.91209C26.4121 6.06593 28.1704 7.82418 30.3242 7.82418ZM30.3242 1.75824C31.511 1.75824 32.478 2.72527 32.478 3.91209C32.478 5.0989 31.511 6.06593 30.3242 6.06593C29.1374 6.06593 28.1704 5.0989 28.1704 3.91209C28.1704 2.72527 29.1374 1.75824 30.3242 1.75824Z" fill="#1A1A1A"/>
<path id="Vector_4" d="M35.8644 10.4174C35.5128 9.45036 34.5897 8.79102 33.5787 8.79102H27.0732C26.0183 8.79102 25.0952 9.45036 24.7875 10.4174C24.6117 10.857 24.8754 11.3844 25.315 11.5163C25.7545 11.6921 26.282 11.4284 26.4139 10.9888C26.5018 10.7251 26.7655 10.5493 27.0732 10.5493H33.5347C33.8424 10.5493 34.0622 10.7251 34.1501 10.9888L36.6996 19.6482C36.8315 20.0438 36.7875 20.3515 36.6996 20.4833C36.6996 20.5273 36.6556 20.5712 36.4798 20.5712H36.304C35.1611 20.5712 34.1501 21.4064 33.9304 22.5053L31.6007 33.7581C31.5567 34.0657 31.293 34.2855 30.9853 34.2855H29.6666C29.3589 34.2855 29.0512 34.0657 29.0073 33.7581L28.0402 29.0108C27.9523 28.5273 27.4688 28.2196 26.9853 28.3075C26.5018 28.3954 26.1941 28.8789 26.282 29.3624L27.249 34.1097C27.4688 35.2526 28.4798 36.0438 29.6227 36.0438H30.9413C32.0842 36.0438 33.0952 35.2086 33.315 34.1097L35.6446 22.8569C35.6886 22.5493 35.9963 22.3295 36.304 22.3295H36.4798C37.1831 22.3295 37.7545 22.0218 38.1501 21.4943C38.5897 20.8789 38.6776 19.9559 38.4139 19.1207L35.8644 10.4174Z" fill="#1A1A1A"/>
<path id="Vector_5" d="M5.35742 3.91209C5.35742 6.06593 7.11566 7.82418 9.26951 7.82418C11.4234 7.82418 13.1816 6.06593 13.1816 3.91209C13.1816 1.75824 11.4234 0 9.26951 0C7.11566 0 5.35742 1.75824 5.35742 3.91209ZM11.4234 3.91209C11.4234 5.0989 10.4563 6.06593 9.26951 6.06593C8.0827 6.06593 7.11566 5.0989 7.11566 3.91209C7.11566 2.72527 8.0827 1.75824 9.26951 1.75824C10.4563 1.75824 11.4234 2.72527 11.4234 3.91209Z" fill="#1A1A1A"/>
<path id="Vector_6" d="M12.6107 28.3075C12.1272 28.2196 11.6877 28.5273 11.5558 29.0108L10.5888 33.7581C10.5448 34.0657 10.2371 34.2855 9.92941 34.2855H8.61073C8.30304 34.2855 7.99535 34.0657 7.95139 33.7581L5.62172 22.5053C5.40194 21.3624 4.39095 20.5712 3.24809 20.5712H3.07227C2.89645 20.5712 2.85249 20.5273 2.85249 20.4833C2.76458 20.3515 2.72062 20.0438 2.85249 19.6482L5.40194 10.9888C5.48985 10.7251 5.75359 10.5493 6.06128 10.5493H12.5228C12.8305 10.5493 13.0503 10.7251 13.1822 10.9888C13.358 11.4284 13.8415 11.6921 14.2811 11.5163C14.7206 11.3405 14.9844 10.857 14.8085 10.4174C14.4569 9.45036 13.5338 8.79102 12.5228 8.79102H6.01733C4.96238 8.79102 4.0393 9.45036 3.68765 10.4613L1.18216 19.0328C0.874468 19.9119 0.96238 20.835 1.40194 21.4504C1.79754 21.9778 2.36897 22.2855 3.07227 22.2855H3.24809C3.55579 22.2855 3.86348 22.5053 3.90743 22.813L6.23711 34.0657C6.45689 35.2086 7.46788 35.9998 8.61073 35.9998H9.92941C11.0723 35.9998 12.0833 35.1646 12.303 34.0657L13.2701 29.3185C13.4019 28.8789 13.0942 28.4394 12.6107 28.3075Z" fill="#1A1A1A"/>
</g>
</g>
</svg>