<svg width="41" height="40" viewBox="0 0 41 40" fill="none" xmlns="http://www.w3.org/2000/svg">
<g id="vector">
<g id="group">
<path id="Vector" d="M30.0573 9H11.2748C8.46115 9 5.76277 10.1177 3.77324 12.1072C1.78372 14.0968 0.666016 16.7951 0.666016 19.6087C0.666016 22.4224 1.78372 25.1207 3.77324 27.1103C5.76277 29.0998 8.46115 30.2175 11.2748 30.2175H30.0573C32.8709 30.2175 35.5693 29.0998 37.5588 27.1103C39.5483 25.1207 40.666 22.4224 40.666 19.6087C40.666 16.7951 39.5483 14.0968 37.5588 12.1072C35.5693 10.1177 32.8709 9 30.0573 9ZM11.2748 28.5573C8.90146 28.5573 6.62537 27.6145 4.94719 25.9363C3.26901 24.2581 2.32623 21.982 2.32623 19.6087C2.32623 17.2354 3.26901 14.9594 4.94719 13.2812C6.62537 11.603 8.90146 10.6602 11.2748 10.6602H24.3849C22.8737 11.6138 21.6286 12.9345 20.7657 14.4993C19.9028 16.064 19.4503 17.8218 19.4503 19.6087C19.4503 21.3956 19.9028 23.1534 20.7657 24.7182C21.6286 26.283 22.8737 27.6037 24.3849 28.5573H11.2748ZM30.0573 28.5573C28.2874 28.5573 26.5573 28.0325 25.0857 27.0492C23.6142 26.0659 22.4672 24.6683 21.7899 23.0332C21.1126 21.3981 20.9354 19.5988 21.2807 17.863C21.626 16.1271 22.4782 14.5326 23.7297 13.2812C24.9812 12.0297 26.5757 11.1774 28.3115 10.8322C30.0473 10.4869 31.8466 10.6641 33.4817 11.3414C35.1169 12.0187 36.5144 13.1656 37.4977 14.6372C38.481 16.1088 39.0058 17.8389 39.0058 19.6087C39.0043 21.9816 38.0611 24.2568 36.3832 25.9347C34.7054 27.6126 32.4301 28.5558 30.0573 28.5573Z" fill="#1A1A1A"/>
<path id="Vector_2" d="M15.532 15.2313L9.83192 21.4239L8.12744 19.5146C7.98067 19.3495 7.77431 19.2494 7.55377 19.2365C7.33323 19.2235 7.11657 19.2987 6.95146 19.4454C6.78634 19.5922 6.68629 19.7986 6.67331 20.0191C6.66034 20.2396 6.73551 20.4563 6.88228 20.6214L9.19551 23.2279C9.27287 23.3144 9.36751 23.3838 9.47331 23.4314C9.57912 23.4791 9.69374 23.504 9.80978 23.5046C9.92402 23.5043 10.037 23.4806 10.1417 23.4349C10.2464 23.3892 10.3406 23.3226 10.4185 23.239L16.755 16.3547C16.8737 16.189 16.9274 15.9854 16.9057 15.7827C16.884 15.58 16.7884 15.3924 16.6373 15.2556C16.4861 15.1189 16.2899 15.0425 16.0861 15.041C15.8823 15.0396 15.685 15.1132 15.532 15.2479V15.2313Z" fill="#1A1A1A"/>
</g>
</g>
</svg>