<svg width="41" height="40" viewBox="0 0 41 40" fill="none" xmlns="http://www.w3.org/2000/svg">
<g id="vector">
<g id="group">
<path id="Vector" d="M24.6517 11.0831L26.1142 10.1602H24.3849H11.2748C8.76885 10.1602 6.36558 11.1557 4.59364 12.9276C2.82169 14.6996 1.82623 17.1028 1.82623 19.6087C1.82623 22.1147 2.82169 24.5179 4.59364 26.2899C6.36558 28.0618 8.76885 29.0573 11.2748 29.0573H24.3849H26.1142L24.6517 28.1344C23.2119 27.2259 22.0257 25.9676 21.2036 24.4768C20.3815 22.9859 19.9503 21.3112 19.9503 19.6087C19.9503 17.9063 20.3815 16.2315 21.2036 14.7407C22.0257 13.2499 23.2119 11.9916 24.6517 11.0831ZM30.0573 29.0573H30.0576C32.5629 29.0557 34.9652 28.0598 36.7368 26.2882C38.5083 24.5167 39.5043 22.1144 39.5058 19.6091V19.6087C39.5058 17.74 38.9517 15.9132 37.9134 14.3594C36.8752 12.8056 35.3996 11.5946 33.6731 10.8794C31.9466 10.1643 30.0468 9.97719 28.214 10.3418C26.3811 10.7063 24.6976 11.6062 23.3762 12.9276C22.0547 14.249 21.1549 15.9326 20.7903 17.7654C20.4257 19.5983 20.6128 21.498 21.328 23.2245C22.0431 24.951 23.2541 26.4267 24.8079 27.4649C26.3618 28.5031 28.1885 29.0573 30.0573 29.0573ZM11.2748 9.5H30.0573C32.7383 9.5 35.3095 10.565 37.2052 12.4608C39.101 14.3565 40.166 16.9277 40.166 19.6087C40.166 22.2897 39.101 24.861 37.2052 26.7567C35.3095 28.6525 32.7383 29.7175 30.0573 29.7175H11.2748C8.59375 29.7175 6.02256 28.6525 4.1268 26.7567C2.23104 24.861 1.16602 22.2897 1.16602 19.6087C1.16602 16.9277 2.23104 14.3565 4.1268 12.4608C6.02256 10.565 8.59375 9.5 11.2748 9.5Z" fill="white" stroke="white"/>
<path id="Vector_2" d="M10.1998 21.7625L15.8017 15.6766L15.8622 15.6233C15.9231 15.5697 16.0015 15.5405 16.0826 15.541C16.1637 15.5416 16.2417 15.572 16.3018 15.6264C16.3619 15.6808 16.3999 15.7554 16.4085 15.836C16.4163 15.9087 16.3997 15.9817 16.3617 16.0437L10.0529 22.898C10.0526 22.8983 10.0523 22.8986 10.052 22.8989C10.0209 22.932 9.98336 22.9585 9.94171 22.9766C9.90028 22.9947 9.85563 23.0042 9.81044 23.0046C9.76499 23.0041 9.72012 22.9942 9.67867 22.9755L9.47904 23.4187L9.67866 22.9755C9.63682 22.9567 9.59937 22.9293 9.5687 22.8952C9.56853 22.895 9.56836 22.8948 9.56819 22.8946L7.25625 20.2895L7.25598 20.2892C7.19731 20.2232 7.16726 20.1366 7.17245 20.0485C7.17764 19.9603 7.21763 19.8778 7.28364 19.8191C7.34964 19.7605 7.43625 19.7304 7.52441 19.7356C7.61257 19.7408 7.69506 19.7808 7.75373 19.8468L7.75445 19.8476L9.45893 21.7568L9.82626 22.1683L10.1998 21.7625Z" fill="white" stroke="white"/>
</g>
</g>
</svg>
