<svg width="40" height="40" viewBox="0 0 40 40" fill="none" xmlns="http://www.w3.org/2000/svg">
<g id="vector">
<path id="Vector" d="M31.25 0C30.8 0 30.5 0.258064 30.5 0.645161V2.45161H9.5V0.645161C9.5 0.258064 9.2 0 8.75 0C8.3 0 8 0.258064 8 0.645161V10.3226C8 10.4516 8 10.6452 8 10.7742C8 10.8387 8 10.8387 8 10.9032C8 10.9677 8 11.0323 8.075 11.0968C8.225 12.5161 8.6 13.8065 9.35 14.9677C9.35 15.0323 9.425 15.0323 9.425 15.0968C10.775 17.3548 13.1 19.1613 15.95 20.0645C13.1 20.9677 10.775 22.7097 9.425 25.0323C9.425 25.0968 9.35 25.0968 9.35 25.1613C8.675 26.3226 8.225 27.6774 8.075 29.0323C8 29.0323 8 29.0323 8 29.1613C8 29.2258 8 29.2258 8 29.2903C8 29.4194 8 29.5484 8 29.7419V33.0323V36.9032V39.3548C8 39.7419 8.3 40 8.75 40C9.2 40 9.5 39.7419 9.5 39.3548V37.5484H30.5V39.3548C30.5 39.7419 30.8 40 31.25 40C31.7 40 32 39.7419 32 39.3548V29.6774C32 29.5484 32 29.3548 32 29.2258C32 29.1613 32 29.1613 32 29.0968C32 29.0323 32 28.9677 31.925 28.9032C31.775 27.4839 31.4 26.1935 30.65 25.0323C30.65 24.9677 30.65 24.9677 30.575 24.9032C29.225 22.6452 26.9 20.8387 24.05 19.9355C26.9 19.0323 29.225 17.2903 30.575 14.9677C30.575 14.9032 30.65 14.9032 30.65 14.8387C31.325 13.6774 31.775 12.3226 31.925 10.9677C31.925 10.9032 32 10.8387 32 10.7742C32 10.7097 32 10.7097 32 10.6452C32 10.5161 32 10.3871 32 10.1935V0.645161C32 0.258064 31.7 0 31.25 0ZM29.525 14.0645H10.475C10.025 13.2903 9.725 12.3871 9.575 11.4839H30.35C30.275 12.4516 29.975 13.2903 29.525 14.0645ZM9.5 10.1935V7.6129H30.5V10.1935H9.5ZM30.5 3.74194V6.32258H9.5V3.74194H30.5ZM9.5 29.8065H30.5V32.3871H9.5V29.8065ZM30.425 28.5161H9.575C9.725 27.6129 10.025 26.7097 10.475 25.9355H29.525C29.975 26.7097 30.275 27.5484 30.425 28.5161ZM9.5 36.2581V33.6774H30.5V36.2581H9.5ZM28.7 24.6452H11.3C13.175 22.1935 16.4 20.6452 20 20.6452C23.6 20.6452 26.825 22.1935 28.7 24.6452ZM20 19.3548C16.4 19.3548 13.175 17.8064 11.3 15.3548H28.7C26.825 17.8064 23.6 19.3548 20 19.3548Z" fill="#1A1A1A"/>
</g>
</svg>