<svg width="40" height="40" viewBox="0 0 40 40" fill="none" xmlns="http://www.w3.org/2000/svg">
<g id="vector">
<g id="vector_2">
<path id="Vector" d="M38.1513 18.2371V12.9824C38.1496 12.005 37.7973 11.0607 37.1583 10.3212C36.5193 9.58163 35.6361 9.09594 34.6693 8.95241L27.4387 1.72242C26.9518 1.2596 26.3057 1.00152 25.634 1.00152C24.9623 1.00152 24.3162 1.2596 23.8293 1.72242L19.9413 5.61241L16.054 1.72375C15.5674 1.2592 14.9204 1 14.2477 1C13.5749 1 12.928 1.2592 12.4413 1.72375L5.26133 8.90375H4.078C2.99676 8.90516 1.96023 9.33535 1.19574 10.1C0.431255 10.8646 0.00123478 11.9012 0 12.9824V34.9897C0.00123512 36.0709 0.431277 37.1075 1.19578 37.872C1.96029 38.6365 2.99683 39.0665 4.078 39.0677H34.0733C35.1545 39.0665 36.191 38.6365 36.9556 37.872C37.7201 37.1075 38.1501 36.0709 38.1513 34.9897V29.7364C38.6848 29.574 39.1522 29.2448 39.4849 28.7973C39.8176 28.3498 39.9981 27.8074 40 27.2497V20.7238C39.998 20.1661 39.8174 19.6238 39.4847 19.1763C39.152 18.7288 38.6847 18.3996 38.1513 18.2371ZM24.772 2.66508C25.0048 2.44452 25.3133 2.32158 25.634 2.32158C25.9547 2.32158 26.2632 2.44452 26.496 2.66508L32.7353 8.90375H23.2313L20.8813 6.55375L24.772 2.66508ZM13.384 2.66508C13.6167 2.44309 13.926 2.31924 14.2477 2.31924C14.5693 2.31924 14.8786 2.44309 15.1113 2.66508L19.4687 7.02308L21.3467 8.90108H7.14667L13.384 2.66508ZM34.0733 37.7318H4.078C3.35034 37.7309 2.65274 37.4414 2.1382 36.9269C1.62367 36.4123 1.33422 35.7147 1.33333 34.9871V12.9824C1.33422 12.2547 1.62365 11.557 2.13816 11.0424C2.65268 10.5277 3.35028 10.2381 4.078 10.2371H5.51933C5.52932 10.2377 5.53934 10.2377 5.54933 10.2371H22.9493C22.9544 10.2374 22.9596 10.2374 22.9647 10.2371C22.9696 10.2373 22.9744 10.2373 22.9793 10.2371H34.0733C34.8011 10.2381 35.4987 10.5277 36.0132 11.0424C36.5277 11.557 36.8171 12.2547 36.818 12.9824V18.1097H29.2533C27.6946 18.1097 26.1996 18.729 25.0974 19.8312C23.9952 20.9334 23.376 22.4283 23.376 23.9871C23.376 25.5459 23.9952 27.0408 25.0974 28.143C26.1996 29.2452 27.6946 29.8644 29.2533 29.8644H36.818V34.9897C36.8171 35.7174 36.5277 36.415 36.0131 36.9296C35.4986 37.4441 34.801 37.7335 34.0733 37.7344V37.7318ZM38.6667 27.2471C38.6663 27.5868 38.5312 27.9125 38.291 28.1527C38.0508 28.393 37.7251 28.5281 37.3853 28.5284H29.252C28.0469 28.5284 26.8911 28.0497 26.0389 27.1975C25.1867 26.3453 24.708 25.1896 24.708 23.9844C24.708 22.7793 25.1867 21.6235 26.0389 20.7713C26.8911 19.9192 28.0469 19.4404 29.252 19.4404H37.3853C37.7249 19.4408 38.0505 19.5758 38.2907 19.8159C38.531 20.0559 38.6661 20.3815 38.6667 20.7211V27.2471Z" fill="#1A1A1A"/>
<path id="Vector_2" d="M29.5781 21.2129C29.0288 21.2129 28.4918 21.3758 28.0351 21.681C27.5784 21.9861 27.2224 22.4199 27.0122 22.9274C26.802 23.4349 26.747 23.9933 26.8541 24.5321C26.9613 25.0708 27.2258 25.5657 27.6142 25.9541C28.0027 26.3425 28.4975 26.607 29.0363 26.7142C29.575 26.8214 30.1335 26.7664 30.641 26.5561C31.1484 26.3459 31.5822 25.99 31.8874 25.5332C32.1926 25.0765 32.3554 24.5395 32.3554 23.9902C32.3547 23.2538 32.0619 22.5478 31.5412 22.0271C31.0205 21.5064 30.3145 21.2136 29.5781 21.2129ZM29.5781 25.4336C29.2925 25.4336 29.0133 25.3489 28.7758 25.1902C28.5383 25.0315 28.3532 24.8059 28.244 24.542C28.1347 24.2781 28.1061 23.9877 28.1619 23.7076C28.2177 23.4275 28.3553 23.1702 28.5573 22.9683C28.7593 22.7663 29.0167 22.6289 29.2968 22.5732C29.577 22.5176 29.8673 22.5463 30.1312 22.6557C30.395 22.7651 30.6205 22.9502 30.7791 23.1878C30.9377 23.4254 31.0222 23.7046 31.0221 23.9902C31.0209 24.3725 30.8682 24.7387 30.5976 25.0087C30.327 25.2787 29.9604 25.4305 29.5781 25.4309V25.4336Z" fill="#1A1A1A"/>
</g>
</g>
</svg>