<svg width="40" height="40" viewBox="0 0 40 40" fill="none" xmlns="http://www.w3.org/2000/svg">
<g id="vector">
<g id="vector_2">
<path id="Vector" d="M37.6513 18.2371V18.6074L38.0056 18.7154C38.4368 18.8468 38.8145 19.1129 39.0835 19.4746C39.3522 19.8361 39.4982 20.2741 39.5 20.7245C39.5 20.7249 39.5 20.7252 39.5 20.7255V27.2481C39.5 27.2484 39.5 27.2488 39.5 27.2491C39.4983 27.6995 39.3523 28.1375 39.0836 28.499C38.8147 28.8607 38.4369 29.1268 38.0057 29.2581L37.6513 29.366V29.7364V34.9892C37.6503 35.9379 37.2729 36.8475 36.602 37.5184C35.9311 38.1893 35.0215 38.5667 34.0728 38.5677H4.07857C3.12981 38.5667 2.22021 38.1893 1.54934 37.5184C0.878524 36.8476 0.501157 35.9381 0.5 34.9895V12.9827C0.501157 12.034 0.878514 11.1244 1.54932 10.4535C2.2202 9.7825 3.12981 9.40499 4.07865 9.40375H5.26133H5.46844L5.61489 9.2573L12.7906 2.08162C13.1837 1.70825 13.7053 1.5 14.2477 1.5C14.79 1.5 15.3116 1.70824 15.7047 2.0816L19.5877 5.96591L19.9414 6.31967L20.295 5.96588L24.1782 2.08065C24.5716 1.70879 25.0925 1.50152 25.634 1.50152C26.1755 1.50152 26.6964 1.70881 27.0898 2.08069L34.3158 9.30598L34.4326 9.42275L34.5959 9.44699C35.4442 9.57293 36.2192 9.99913 36.7799 10.6481C37.3406 11.297 37.6498 12.1257 37.6513 12.9833V18.2371ZM24.4281 2.30212L24.428 2.30199L24.4185 2.31144L20.5279 6.2001L20.1741 6.55366L20.5278 6.9073L22.8778 9.2573L23.0242 9.40375H23.2313H32.7353H33.9425L33.0889 8.55018L26.8495 2.31151L26.8497 2.31138L26.8399 2.30212C26.5142 1.99356 26.0826 1.82158 25.634 1.82158C25.1854 1.82158 24.7538 1.99356 24.4281 2.30212ZM13.0389 2.30327L13.0388 2.30317L13.0305 2.31149L6.79315 8.54749L5.93938 9.40108H7.14667H21.3467H22.5538L21.7002 8.54753L19.8222 6.66956L19.8222 6.66953L15.4649 2.31156L15.465 2.31146L15.4564 2.30327C15.1307 1.99258 14.6978 1.81924 14.2477 1.81924C13.7975 1.81924 13.3646 1.99258 13.0389 2.30327ZM4.078 38.2318H33.5733V38.235L34.0739 38.2344C34.934 38.2334 35.7585 37.8913 36.3667 37.2831C36.9748 36.6749 37.317 35.8504 37.318 34.9904V34.9897V29.8644V29.3644H36.818H29.2533C27.8272 29.3644 26.4594 28.7979 25.451 27.7894C24.4425 26.781 23.876 25.4132 23.876 23.9871C23.876 22.5609 24.4425 21.1932 25.451 20.1847C26.4594 19.1763 27.8272 18.6097 29.2533 18.6097H36.818H37.318V18.1097V12.9824V12.9818C37.317 12.1217 36.9749 11.2971 36.3668 10.6889C35.7587 10.0806 34.9342 9.73833 34.0741 9.73708H34.0733H22.9793H22.9769L22.9617 9.73633L22.9494 9.73708H22.9493H5.54933H5.536H5.53267H5.51933L4.078 9.73708L4.07727 9.73708C3.21717 9.73833 2.39267 10.0806 1.78457 10.6889C1.17646 11.2971 0.834376 12.1217 0.833333 12.9818V12.9824L0.833333 34.9871L0.833334 34.9877C0.834376 35.8477 1.1765 36.6723 1.78465 37.2804C2.3928 37.8886 3.21734 38.2307 4.07739 38.2318H4.078ZM39.1667 27.2476V27.2471V20.7211V20.7203C39.1659 20.2483 38.9781 19.7959 38.6442 19.4622C38.3104 19.1286 37.8578 18.9409 37.3859 18.9404H37.3853H29.252C27.9142 18.9404 26.6313 19.4718 25.6854 20.4178C24.7394 21.3637 24.208 22.6467 24.208 23.9844C24.208 25.3222 24.7394 26.6051 25.6854 27.5511C26.6313 28.497 27.9142 29.0284 29.252 29.0284H37.3853H37.3859C37.858 29.0279 38.3107 28.8401 38.6445 28.5063C38.9784 28.1724 39.1662 27.7198 39.1667 27.2476Z" fill="white" stroke="white"/>
<path id="Vector_2" d="M29.5781 25.9336H30.0781V25.8652C30.4053 25.7779 30.7069 25.606 30.9508 25.3627C31.315 24.9993 31.5205 24.5064 31.5221 23.9918L31.5221 23.9905C31.5223 23.6059 31.4084 23.23 31.1949 22.9102C30.9814 22.5904 30.6779 22.3411 30.3227 22.1938C29.9675 22.0465 29.5766 22.0079 29.1994 22.0828C28.8223 22.1577 28.4758 22.3428 28.2038 22.6146C27.9319 22.8865 27.7466 23.2328 27.6715 23.61C27.5965 23.9871 27.6349 24.378 27.782 24.7333C27.9291 25.0886 28.1783 25.3922 28.498 25.6059L28.7758 25.1902L28.498 25.6059C28.8177 25.8195 29.1936 25.9336 29.5781 25.9336ZM28.3129 22.0967C28.6873 21.8465 29.1276 21.7129 29.5779 21.7129C30.1817 21.7135 30.7607 21.9537 31.1877 22.3807C31.6147 22.8077 31.8549 23.3868 31.8554 23.9907C31.8554 24.441 31.7218 24.8811 31.4716 25.2554C31.2214 25.6299 30.8657 25.9218 30.4496 26.0942C30.0335 26.2666 29.5756 26.3117 29.1338 26.2238C28.6921 26.1359 28.2863 25.919 27.9678 25.6005C27.6493 25.2821 27.4324 24.8763 27.3445 24.4345C27.2567 23.9928 27.3018 23.5349 27.4741 23.1187C27.6465 22.7026 27.9384 22.3469 28.3129 22.0967Z" fill="white" stroke="white"/>
</g>
</g>
</svg>
